<?xml version="1.0" standalone="no"?>
<!DOCTYPE svg PUBLIC "-//W3C//DTD SVG 20010904//EN"
 "http://www.w3.org/TR/2001/REC-SVG-20010904/DTD/svg10.dtd">
<svg version="1.0" xmlns="http://www.w3.org/2000/svg"
 width="154.000000pt" height="145.000000pt" viewBox="0 0 154.000000 145.000000"
 preserveAspectRatio="xMidYMid meet">

<g transform="translate(0.000000,145.000000) scale(0.100000,-0.100000)"
fill="#000000" stroke="none">
<path d="M50 1443 c0 -5 11 -9 25 -9 14 -1 25 2 25 7 0 5 -11 9 -25 9 -14 0
-25 -3 -25 -7z"/>
<path d="M130 1435 c0 -7 6 -18 14 -22 8 -4 16 -19 18 -33 2 -20 9 -26 36 -28
21 -2 34 2 38 12 3 8 12 12 21 9 21 -8 63 -52 63 -65 0 -6 9 -3 20 7 19 17 21
17 38 2 10 -10 29 -17 41 -17 12 0 20 -4 16 -9 -3 -5 -1 -12 5 -16 5 -3 10 -1
10 4 0 6 10 12 23 12 19 1 19 2 3 6 -10 3 -33 14 -50 24 -27 17 -28 19 -9 19
12 0 23 -5 25 -11 5 -14 57 6 64 24 7 18 54 10 54 -9 0 -8 10 -14 24 -14 13 0
29 -7 37 -16 11 -14 13 -14 21 0 5 9 22 16 38 16 20 0 30 5 30 14 0 8 5 18 12
22 8 5 9 2 5 -9 -4 -11 -1 -17 8 -17 8 0 15 5 15 11 0 8 5 8 15 -1 12 -10 15
-9 15 5 0 14 6 16 30 11 28 -5 30 -4 24 20 -6 23 -5 24 20 13 20 -10 26 -20
27 -48 1 -27 3 -30 6 -11 2 14 12 31 21 38 13 10 13 12 1 13 -8 1 -17 1 -21 0
-5 0 -8 8 -8 19 0 14 -5 18 -17 13 -12 -5 -15 -2 -10 10 6 16 -21 17 -358 17
-312 0 -365 -2 -365 -15z m91 -53 c7 -20 5 -22 -22 -22 -17 0 -28 3 -26 8 2 4
7 15 10 25 9 23 28 18 38 -11z m469 -22 c0 -5 -2 -10 -4 -10 -3 0 -8 5 -11 10
-3 6 -1 10 4 10 6 0 11 -4 11 -10z"/>
<path d="M886 1438 c3 -4 12 -4 22 -1 15 6 16 5 2 -13 -14 -18 -14 -18 2 -5
21 16 15 30 -12 28 -10 -1 -17 -5 -14 -9z"/>
<path d="M978 1401 c-10 -10 -18 -22 -18 -26 0 -5 5 -4 11 2 6 6 17 9 23 7 7
-3 23 0 37 6 23 10 23 10 -5 5 -23 -5 -27 -3 -23 9 8 21 -4 19 -25 -3z"/>
<path d="M1060 1402 c0 -12 19 -26 26 -19 2 2 -2 10 -11 17 -9 8 -15 8 -15 2z"/>
<path d="M821 1297 c-8 -10 -7 -14 4 -14 8 0 12 4 9 8 -2 4 2 10 8 12 8 4 9 6
2 6 -6 1 -17 -5 -23 -12z"/>
<path d="M773 1285 c-3 -9 -3 -18 -1 -21 3 -3 8 4 11 16 6 23 -1 27 -10 5z"/>
<path d="M741 1254 c0 -11 3 -14 6 -6 3 7 2 16 -1 19 -3 4 -6 -2 -5 -13z"/>
<path d="M698 1233 c7 -3 16 -2 19 1 4 3 -2 6 -13 5 -11 0 -14 -3 -6 -6z"/>
<path d="M1355 1165 c-22 -14 -45 -25 -52 -25 -7 0 -47 -20 -89 -45 -41 -25
-79 -45 -82 -45 -4 0 -23 -14 -42 -30 -19 -16 -38 -30 -42 -30 -5 0 -8 -7 -8
-15 0 -19 -46 -64 -89 -87 l-31 -17 2 -199 c1 -109 -2 -204 -6 -210 -4 -7 -18
-12 -32 -12 -13 0 -24 -4 -24 -10 0 -5 -11 -10 -24 -10 -23 0 -25 -3 -24 -57
0 -93 -1 -105 -13 -98 -6 4 -8 13 -5 21 3 8 0 14 -6 14 -9 0 -9 3 0 12 17 17
15 41 -3 35 -8 -4 -17 -2 -20 3 -4 6 -14 5 -26 -3 -14 -9 -18 -19 -14 -37 5
-22 2 -26 -20 -28 -16 -1 -25 3 -25 13 0 8 7 15 15 15 8 0 15 7 15 15 0 12
-13 15 -55 15 -37 0 -55 4 -55 13 0 25 -20 -18 -20 -45 0 -33 -12 -41 -50 -33
-41 9 -38 25 5 25 29 0 35 4 35 21 0 18 -5 20 -47 17 -37 -2 -47 -7 -44 -18 7
-28 6 -35 -4 -38 -5 -1 -11 6 -13 18 -3 20 -32 29 -32 10 0 -6 -19 -11 -42
-11 -24 0 -65 -2 -92 -5 -35 -5 -51 -2 -57 7 -6 10 -9 11 -9 2 0 -7 -9 -13
-20 -13 -12 0 -17 -5 -14 -14 3 -8 1 -17 -5 -21 -6 -3 -11 2 -11 13 0 22 -30
34 -51 21 -8 -5 -24 -9 -37 -9 -15 0 -21 -4 -17 -12 4 -7 -1 -4 -9 6 -14 17
-22 103 -19 194 1 6 -3 12 -8 12 -5 0 -9 -7 -9 -15 0 -9 -7 -18 -15 -21 -13
-5 -15 -40 -15 -230 l1 -224 127 0 c86 0 132 4 140 12 9 9 12 9 12 -2 1 -11 6
-9 18 6 10 11 24 23 32 27 12 4 11 6 -3 6 -10 1 -20 -6 -23 -14 -4 -8 -10 -15
-15 -15 -4 0 -6 7 -2 16 5 15 3 15 -20 -1 -15 -9 -27 -13 -27 -7 0 6 8 16 17
22 16 10 15 11 -5 7 -13 -3 -20 -1 -16 5 3 5 17 7 30 4 13 -4 24 -5 24 -4 0 2
-4 17 -9 35 -7 23 -6 33 3 36 8 3 11 -4 8 -25 l-4 -29 53 6 c30 4 78 10 107
14 48 7 74 0 58 -16 -3 -4 -6 0 -6 7 0 9 -8 5 -21 -9 -15 -16 -24 -19 -29 -11
-5 8 -9 7 -13 -4 -4 -10 3 -21 21 -30 l27 -15 -38 -1 c-21 0 -47 5 -58 10 -15
9 -19 7 -19 -5 0 -13 -4 -14 -20 -5 -16 9 -20 8 -20 -5 0 -13 14 -15 85 -13
50 1 85 6 85 12 0 6 5 5 12 -2 18 -18 72 -16 65 2 -6 16 22 46 42 46 8 0 11 6
7 16 -5 12 -2 15 9 10 9 -3 13 -2 10 4 -8 13 -48 13 -62 -1 -8 -8 -13 -8 -18
1 -4 6 -5 14 -2 16 3 3 79 14 169 25 90 10 188 22 218 27 l55 8 -42 5 c-24 2
-43 1 -43 -3 0 -5 -4 -8 -10 -8 -15 0 -12 27 3 27 6 0 114 4 240 8 167 6 227
5 227 -4 0 -10 -21 -15 -57 -14 -7 0 -11 -4 -10 -11 1 -7 -17 -12 -48 -13 -27
-2 -117 -8 -199 -13 -148 -11 -149 -11 -240 -57 l-91 -46 70 -15 c51 -11 160
-16 403 -19 l332 -4 0 136 c0 113 -2 135 -15 135 -8 0 -15 4 -15 10 0 5 7 7
15 4 12 -5 15 5 15 60 0 57 -2 65 -17 59 -9 -4 -14 -2 -11 3 3 5 1 18 -3 29
-9 19 -9 19 -5 -1 3 -18 -1 -21 -20 -20 -26 1 -32 11 -11 19 6 3 1 6 -12 6
-17 1 -22 -3 -17 -14 4 -10 -1 -15 -15 -15 -12 0 -17 4 -14 11 14 22 -1 553
-16 579 -7 13 -8 13 -9 0 0 -13 -1 -13 -10 0 -6 9 -13 11 -17 5 -10 -13 -33
-17 -33 -6 0 12 25 21 57 21 15 0 23 5 20 13 -2 7 -17 11 -38 9 -26 -2 -30 0
-19 7 8 6 31 11 50 11 26 0 31 3 20 10 -9 5 -15 20 -14 37 1 15 3 34 3 41 1 7
6 10 12 7 6 -4 5 2 -3 14 -16 26 -14 26 -63 -4z m-73 -139 c-62 -13 -61 -27 1
-18 37 5 40 4 27 -9 -21 -21 -50 -31 -50 -18 0 6 -9 9 -20 6 -16 -4 -20 0 -20
22 0 25 2 26 58 27 l57 1 -53 -11z m-69 -73 c5 -3 7 -13 4 -23 -5 -20 18 -36
28 -19 4 5 11 7 16 3 5 -3 6 -10 3 -16 -4 -6 1 -8 15 -3 11 3 21 2 21 -2 0 -5
-17 -10 -37 -11 -44 -3 -53 -10 -33 -22 12 -8 12 -10 1 -10 -11 0 -13 -32 -8
-187 3 -104 6 -189 6 -191 1 -2 6 0 13 4 6 4 4 -3 -5 -16 -10 -15 -13 -29 -8
-39 8 -13 3 -16 -30 -16 -21 0 -39 3 -39 7 0 4 -6 5 -13 2 -8 -3 -13 5 -15 20
-1 20 2 24 16 20 16 -5 16 -5 0 6 -10 6 -18 18 -18 25 0 10 -12 16 -37 17 -37
1 -37 1 -5 5 17 2 32 8 32 12 0 5 -19 5 -42 0 -65 -12 -85 -12 -70 3 16 16 15
45 0 52 -7 3 3 3 22 0 26 -4 31 -3 20 5 -12 9 -10 11 10 11 68 1 65 -8 63 196
l-3 186 43 -7 c23 -4 46 -10 50 -12z m180 10 c-7 -2 -19 -2 -25 0 -7 3 -2 5
12 5 14 0 19 -2 13 -5z m-127 -18 c-8 -8 -21 -15 -28 -15 -8 1 -6 6 6 15 26
20 42 19 22 0z m-1 -85 c3 -5 1 -10 -4 -10 -6 0 -11 5 -11 10 0 6 2 10 4 10 3
0 8 -4 11 -10z m55 -1 c0 -11 -27 -12 -34 -1 -2 4 4 9 15 9 10 1 19 -2 19 -8z
m-327 -136 c-7 -2 -19 -2 -25 0 -7 3 -2 5 12 5 14 0 19 -2 13 -5z m97 -102 c0
-8 -81 -33 -88 -27 -2 3 45 23 86 35 1 1 2 -3 2 -8z m-160 -186 c0 -8 -4 -15
-10 -15 -5 0 -7 7 -4 15 4 8 8 15 10 15 2 0 4 -7 4 -15z m459 -19 c-11 -9
-143 -16 -134 -7 6 5 37 11 70 13 59 3 73 2 64 -6z m-459 -16 c0 -5 -4 -10
-10 -10 -5 0 -10 5 -10 10 0 6 5 10 10 10 6 0 10 -4 10 -10z m517 -6 c-3 -3
-12 -4 -19 -1 -8 3 -5 6 6 6 11 1 17 -2 13 -5z m-92 -74 c-6 -10 -65 -18 -65
-9 0 4 10 15 22 23 16 11 25 13 35 5 7 -6 11 -15 8 -19z m108 4 c-7 -3 -9 -13
-6 -22 7 -18 5 -17 -16 11 -12 15 -11 17 10 16 13 0 19 -3 12 -5z m-813 -14
c0 -5 -2 -10 -4 -10 -3 0 -8 5 -11 10 -3 6 -1 10 4 10 6 0 11 -4 11 -10z m580
0 c0 -5 -6 -10 -12 -10 -10 0 -10 -2 -1 -8 15 -10 11 -41 -8 -53 -10 -7 -6 -8
14 -5 15 3 25 1 22 -5 -4 -5 -18 -9 -33 -9 -24 0 -27 4 -28 33 -1 17 -5 40 -9
50 -6 14 -2 17 24 17 17 0 31 -4 31 -10z m-65 -20 c-3 -5 -11 -10 -16 -10 -6
0 -7 5 -4 10 3 6 11 10 16 10 6 0 7 -4 4 -10z m-70 -37 c-1 -33 -4 -38 -28
-41 -23 -3 -27 0 -25 22 2 17 8 26 20 26 29 0 21 18 -9 23 -24 3 -23 4 7 6 35
1 36 0 35 -36z m-201 12 c-6 -15 -3 -17 34 -18 19 -1 32 -15 32 -35 0 -8 -12
-12 -32 -11 -18 1 -41 -2 -50 -6 -15 -6 -16 -4 -5 18 6 14 15 23 19 21 5 -3 8
-3 8 -1 0 3 -15 14 -32 26 l-33 21 32 0 c25 0 31 -4 27 -15z m-166 -14 c6 -19
-8 -62 -18 -56 -6 4 -8 11 -5 16 4 5 1 9 -4 9 -6 0 -11 7 -11 15 0 8 -8 15
-17 16 -15 0 -15 2 2 8 26 11 48 7 53 -8z m-153 -1 c-3 -5 -15 -10 -26 -10
-10 0 -19 5 -19 10 0 6 12 10 26 10 14 0 23 -4 19 -10z m863 -7 c-2 -9 -11
-17 -20 -19 -20 -3 -20 -2 -12 20 8 21 36 21 32 -1z m92 7 c0 -5 -4 -10 -10
-10 -5 0 -10 5 -10 10 0 6 5 10 10 10 6 0 10 -4 10 -10z m-1224 -16 c-3 -9 -6
-18 -6 -21 0 -3 -7 0 -15 7 -8 7 -15 9 -15 6 0 -4 -6 -4 -12 0 -9 6 -5 10 12
15 39 11 43 10 36 -7z m114 9 c0 -10 -66 -10 -76 0 -4 4 11 7 34 7 23 0 42 -3
42 -7z m907 -21 c-10 -2 -26 -1 -35 3 -14 5 -14 8 -2 15 8 5 22 4 34 -3 19
-10 20 -11 3 -15z m-1194 0 c-13 -2 -23 -8 -23 -13 0 -5 -7 -9 -16 -9 -8 0
-12 5 -9 11 10 15 48 28 60 20 6 -3 0 -7 -12 -9z m87 3 c0 -17 -2 -18 -24 -9
-23 9 -20 24 4 24 11 0 20 -7 20 -15z m196 -6 c13 -21 -14 -33 -43 -19 l-28
13 25 8 c36 10 38 10 46 -2z m159 1 c3 -5 1 -10 -4 -10 -6 0 -10 -3 -10 -7 3
-21 -2 -34 -12 -31 -7 2 -13 16 -15 31 -2 21 2 27 16 27 10 0 22 -4 25 -10z
m875 -19 c0 -5 -11 -11 -25 -13 -28 -6 -35 8 -7 15 28 8 32 7 32 -2z m-964
-55 c10 -8 16 -17 12 -21 -8 -8 -48 13 -48 25 0 14 13 12 36 -4z m-260 -45
c-12 -19 -24 -12 -19 10 4 13 9 17 15 11 6 -6 7 -15 4 -21z m324 -1 c0 -5 -4
-10 -10 -10 -5 0 -10 5 -10 10 0 6 5 10 10 10 6 0 10 -4 10 -10z m-500 -54 c0
-2 -7 -7 -16 -10 -8 -3 -12 -2 -9 4 6 10 25 14 25 6z"/>
<path d="M1140 486 c0 -2 7 -7 16 -10 8 -3 12 -2 9 4 -6 10 -25 14 -25 6z"/>
<path d="M1170 449 c0 -5 5 -7 10 -4 6 3 10 8 10 11 0 2 -4 4 -10 4 -5 0 -10
-5 -10 -11z"/>
<path d="M1195 440 c-3 -5 -1 -10 4 -10 6 0 11 5 11 10 0 6 -2 10 -4 10 -3 0
-8 -4 -11 -10z"/>
<path d="M865 1140 c3 -5 11 -10 16 -10 6 0 7 5 4 10 -3 6 -11 10 -16 10 -6 0
-7 -4 -4 -10z"/>
<path d="M1428 973 c6 -2 18 -2 25 0 6 3 1 5 -13 5 -14 0 -19 -2 -12 -5z"/>
<path d="M343 853 c-35 -5 -40 -12 -21 -31 9 -9 8 -12 -5 -12 -9 0 -16 3 -14
8 1 4 -2 9 -8 12 -5 3 -16 -8 -25 -25 -18 -37 -28 -44 -51 -40 -22 4 -45 -20
-29 -30 6 -3 8 -10 5 -15 -3 -5 0 -12 6 -16 8 -4 9 -3 5 4 -4 7 -1 12 6 12 9
0 9 3 -2 10 -8 5 -12 10 -7 11 18 4 24 6 54 22 17 9 34 14 36 9 7 -12 9 -176
1 -195 -3 -9 -13 -17 -21 -17 -9 0 -13 -6 -9 -15 3 -8 2 -15 -2 -15 -4 0 -12
-8 -18 -17 -10 -16 -7 -18 22 -18 19 0 34 4 34 9 0 4 8 5 18 1 9 -4 45 -9 80
-11 57 -4 62 -3 62 16 0 19 6 20 175 19 96 -1 175 -5 175 -10 0 -13 42 -11 73
4 23 10 27 18 27 55 l0 42 -92 1 c-51 1 -98 1 -104 0 -13 -1 -24 53 -24 118 0
31 -4 42 -12 38 -48 -20 -69 -34 -73 -49 -3 -9 -28 -31 -55 -50 -42 -28 -50
-38 -50 -65 0 -22 -6 -33 -19 -38 -11 -3 -23 -15 -26 -26 -4 -11 -10 -18 -13
-14 -8 8 -9 20 -11 157 -1 91 -3 106 -16 102 -8 -4 -15 -16 -16 -28 0 -11 -3
-15 -6 -8 -3 7 -1 20 3 30 4 9 9 29 11 45 3 29 4 28 -64 20z m37 -57 c0 -2
-18 -6 -39 -8 -22 -2 -37 0 -35 4 5 8 74 11 74 4z m-27 -33 c-7 -2 -19 -2 -25
0 -7 3 -2 5 12 5 14 0 19 -2 13 -5z"/>
<path d="M1508 783 c7 -3 16 -2 19 1 4 3 -2 6 -13 5 -11 0 -14 -3 -6 -6z"/>
<path d="M170 702 c0 -7 5 -12 10 -12 6 0 10 -5 10 -11 0 -5 -4 -7 -10 -4 -5
3 -10 -1 -10 -10 0 -8 -7 -18 -16 -22 -12 -4 -13 -8 -3 -14 7 -4 13 -20 14
-35 0 -20 6 -28 23 -31 22 -3 23 -1 18 58 -3 37 -11 68 -20 77 -11 11 -16 12
-16 4z"/>
<path d="M1468 703 c6 -2 18 -2 25 0 6 3 1 5 -13 5 -14 0 -19 -2 -12 -5z"/>
<path d="M225 671 c-3 -5 -2 -12 3 -15 5 -3 9 1 9 9 0 17 -3 19 -12 6z"/>
<path d="M116 562 c-3 -4 7 -9 21 -10 37 -3 44 -11 33 -33 -9 -16 -7 -19 15
-19 20 0 25 5 25 25 0 14 -3 25 -7 26 -5 0 -15 2 -23 4 -48 12 -60 13 -64 7z"/>
<path d="M470 475 c0 -11 12 -15 50 -15 38 0 50 4 50 15 0 11 -12 15 -50 15
-38 0 -50 -4 -50 -15z"/>
<path d="M580 475 c0 -12 14 -15 65 -15 51 0 65 3 65 15 0 12 -14 15 -65 15
-51 0 -65 -3 -65 -15z"/>
<path d="M720 481 c0 -5 9 -11 20 -14 11 -3 20 -1 20 3 0 5 10 11 23 13 12 2
3 5 -20 6 -24 0 -43 -3 -43 -8z"/>
<path d="M1438 483 c6 -2 18 -2 25 0 6 3 1 5 -13 5 -14 0 -19 -2 -12 -5z"/>
<path d="M66 444 c-8 -20 9 -30 50 -29 33 0 41 -3 36 -15 -3 -9 1 -7 10 4 28
36 16 51 -40 51 -29 0 -54 -5 -56 -11z"/>
<path d="M208 452 c-10 -2 -18 -9 -18 -17 0 -16 56 -25 70 -11 6 6 10 7 10 0
0 -6 16 -8 35 -6 24 3 35 9 35 21 0 13 -11 16 -58 16 -31 1 -65 -1 -74 -3z"/>
<path d="M360 440 c0 -17 7 -20 50 -20 43 0 50 3 50 20 0 17 -7 20 -50 20 -43
0 -50 -3 -50 -20z"/>
<path d="M472 403 c3 -14 14 -18 51 -19 40 -1 47 2 47 17 0 16 -8 19 -51 19
-43 0 -50 -3 -47 -17z"/>
<path d="M582 404 c2 -8 6 -15 11 -15 4 1 29 1 56 1 34 0 51 4 55 15 4 12 -6
15 -60 15 -54 0 -65 -3 -62 -16z"/>
<path d="M730 413 c8 -3 18 -10 21 -15 3 -5 9 -3 12 6 5 12 0 16 -21 15 -16 0
-21 -3 -12 -6z"/>
<path d="M115 390 c6 -10 -7 -14 -32 -11 -8 1 -13 -9 -13 -24 0 -20 5 -25 25
-25 14 0 25 -4 25 -10 0 -5 5 -10 11 -10 6 0 9 7 5 15 -4 11 1 15 19 15 19 0
25 5 25 21 0 17 -5 20 -21 16 -12 -3 -22 0 -26 9 -3 8 -9 14 -15 14 -5 0 -6
-4 -3 -10z"/>
<path d="M351 393 c-1 -7 -12 -13 -25 -13 -13 0 -27 -6 -29 -12 -4 -10 -6 -10
-6 0 -1 8 -18 12 -51 12 -43 0 -50 -3 -50 -20 0 -18 7 -20 83 -20 57 0 78 -3
67 -10 -12 -8 -11 -10 5 -7 11 1 25 6 32 10 7 4 28 8 48 9 27 1 35 5 35 20 0
15 -8 18 -49 18 -30 0 -51 5 -54 13 -4 10 -6 10 -6 0z"/>
<path d="M390 45 c33 -19 50 -18 26 0 -11 8 -27 15 -35 15 -10 -1 -7 -6 9 -15z"/>
<path d="M619 38 c-6 -25 -6 -38 1 -38 12 0 20 29 10 35 -6 4 -10 5 -11 3z"/>
</g>
</svg>
