<svg width="385" height="129" viewBox="0 0 385 129" fill="none" xmlns="http://www.w3.org/2000/svg">
<g filter="url(#filter0_i_0_1)">
<ellipse cx="192.5" cy="64.5" rx="192.5" ry="64.5" fill="#D9D9D9"/>
</g>
<path d="M57 97.1H41V33.8H71.2C79.1333 33.8 84.9 35.6 88.5 39.2C92.1667 42.7333 94 47.9667 94 54.9C94 60.1 92.7 64.5667 90.1 68.3C87.5 71.9667 84.0667 74.2667 79.8 75.2L79.7 75.5C81.3667 76.5667 83.2 78.3333 85.2 80.8C87.2 83.2667 89.1667 85.9667 91.1 88.9C93.1 91.7667 94.8667 94.4667 96.4 97V97.1H77.8L67 81.1C66.0667 79.7 65.3 78.7 64.7 78.1C64.1667 77.5 63.5 77.1333 62.7 77C61.9667 76.8667 60.7667 76.8 59.1 76.8H57V97.1ZM68.6 46.8H57V63.8H68.6C71.9333 63.8 74.2333 63.1333 75.5 61.8C76.8333 60.4667 77.5 58.3 77.5 55.3C77.5 52.3 76.8333 50.1333 75.5 48.8C74.2333 47.4667 71.9333 46.8 68.6 46.8ZM121.453 97.1H105.453V33.8H135.653C143.586 33.8 149.353 35.6 152.953 39.2C156.62 42.7333 158.453 47.9667 158.453 54.9C158.453 60.1 157.153 64.5667 154.553 68.3C151.953 71.9667 148.52 74.2667 144.253 75.2L144.153 75.5C145.82 76.5667 147.653 78.3333 149.653 80.8C151.653 83.2667 153.62 85.9667 155.553 88.9C157.553 91.7667 159.32 94.4667 160.853 97V97.1H142.253L131.453 81.1C130.52 79.7 129.753 78.7 129.153 78.1C128.62 77.5 127.953 77.1333 127.153 77C126.42 76.8667 125.22 76.8 123.553 76.8H121.453V97.1ZM133.053 46.8H121.453V63.8H133.053C136.386 63.8 138.686 63.1333 139.953 61.8C141.286 60.4667 141.953 58.3 141.953 55.3C141.953 52.3 141.286 50.1333 139.953 48.8C138.686 47.4667 136.386 46.8 133.053 46.8ZM182.906 97.1V47.3H164.906V33.8H216.906V47.3H198.906V97.1H182.906ZM281.91 96.8V97.1H264.91C264.443 95.5 263.877 93.6667 263.21 91.6C262.61 89.5333 261.943 87.3333 261.21 85H239.61C238.277 89.6667 237.043 93.7 235.91 97.1H218.91V96.9L239.41 33.8H261.41L281.91 96.8ZM250.21 45.2C249.543 48.6 248.577 52.7333 247.31 57.6C246.043 62.4667 244.71 67.4333 243.31 72.5H257.61C256.143 67.4333 254.777 62.4667 253.51 57.6C252.243 52.7333 251.277 48.6 250.61 45.2H250.21ZM329.749 64.8L348.249 97.1H328.249L316.749 74.7H316.449L304.949 97.1H284.949L303.449 64.8V64.3L286.149 33.8H305.849L316.449 55.8H316.749L327.349 33.8H347.049L329.749 64.3V64.8Z" fill="#2E5077"/>
<defs>
<filter id="filter0_i_0_1" x="0" y="0" width="385" height="133" filterUnits="userSpaceOnUse" color-interpolation-filters="sRGB">
<feFlood flood-opacity="0" result="BackgroundImageFix"/>
<feBlend mode="normal" in="SourceGraphic" in2="BackgroundImageFix" result="shape"/>
<feColorMatrix in="SourceAlpha" type="matrix" values="0 0 0 0 0 0 0 0 0 0 0 0 0 0 0 0 0 0 127 0" result="hardAlpha"/>
<feOffset dy="4"/>
<feGaussianBlur stdDeviation="2"/>
<feComposite in2="hardAlpha" operator="arithmetic" k2="-1" k3="1"/>
<feColorMatrix type="matrix" values="0 0 0 0 0 0 0 0 0 0 0 0 0 0 0 0 0 0 0.25 0"/>
<feBlend mode="normal" in2="shape" result="effect1_innerShadow_0_1"/>
</filter>
</defs>
</svg>
